<?xml version="1.0" encoding="UTF-8" standalone="no"?>
<svg
   width="560"
   height="200"
   viewBox="0 0 560 200"
   version="1.1"
   xml:space="preserve"
   style="clip-rule:evenodd;fill-rule:evenodd"
   id="svg147"
   sodipodi:docname="audio_tokens_text.svg"
   inkscape:version="1.1.2 (b8e25be833, 2022-02-05)"
   inkscape:export-filename="C:\Users\donhauserp\Documents\Projects\audio_tokens\imgs\audio_tokens_text.png"
   inkscape:export-xdpi="600"
   inkscape:export-ydpi="600"
   xmlns:inkscape="http://www.inkscape.org/namespaces/inkscape"
   xmlns:sodipodi="http://sodipodi.sourceforge.net/DTD/sodipodi-0.dtd"
   xmlns="http://www.w3.org/2000/svg"
   xmlns:svg="http://www.w3.org/2000/svg"
   xmlns:serif="http://www.serif.com/"><defs
   id="defs151">
        
    
            
            
            
        
        
    
            
            
            
        
                
            
                
            
                
                
                
                
                
                
                
                
                
                
            
                
                
                
                
                
                
                
                
                
                
            </defs><sodipodi:namedview
   id="namedview149"
   pagecolor="#ffffff"
   bordercolor="#666666"
   borderopacity="1.0"
   inkscape:pageshadow="2"
   inkscape:pageopacity="0.0"
   inkscape:pagecheckerboard="0"
   showgrid="false"
   inkscape:zoom="0.72386938"
   inkscape:cx="49.041997"
   inkscape:cy="240.37486"
   inkscape:window-width="1920"
   inkscape:window-height="1017"
   inkscape:window-x="-8"
   inkscape:window-y="-8"
   inkscape:window-maximized="1"
   inkscape:current-layer="Volume-9"
   width="550px"
   height="180px" />
    
    <ellipse
   id="_31-6"
   serif:id="3"
   cx="1052.0292"
   cy="-478.61377"
   style="clip-rule:evenodd;fill:#d62728;fill-rule:evenodd;stroke:#000000;stroke-width:2.45079px"
   rx="24.508001"
   ry="24.5079" />
    
    
    
    
    
    
<circle
   id="_33-2-8"
   serif:id="3"
   cx="1052.0292"
   cy="-378.61377"
   r="24.5079"
   style="clip-rule:evenodd;fill:#1f77b4;fill-opacity:1;fill-rule:evenodd;stroke:#393939;stroke-width:2.45079px;stroke-opacity:1" /><circle
   id="_01-8-2-3"
   serif:id="0"
   cx="1194.4189"
   cy="-478.61377"
   r="29.409479"
   style="clip-rule:evenodd;fill:#ff7f0e;fill-opacity:1;fill-rule:evenodd;stroke:#000000;stroke-width:12.254px;stroke-opacity:0.35" /><g
   id="g45031"
   transform="translate(13.896121,7.9774064)"><g
     aria-label="A toolbox for rating, sorting       and comparing 
audio samples in the browser"
     id="text8621-3"
     style="font-size:26.6667px;line-height:1.15;font-family:Arial;-inkscape-font-specification:Arial;fill:#393939;stroke:#393939;stroke-width:3.2"><path
       d="m -7.6569045,146.72534 7.33073838,-19.08856 H 2.3951915 l 7.8125095,19.08856 H 7.3300936 l -2.2265654,-5.78126 h -7.9817809 l -2.0963568,5.78126 z m 5.5078194,-7.83855 h 6.4713624 l -1.9921901,-5.28646 q -0.9114594,-2.40886 -1.35416834,-3.95834 -0.36458379,1.83594 -1.02864713,3.64583 z"
       style="text-align:center;text-anchor:middle;stroke:none"
       id="path70300" /><path
       d="m 22.981154,144.62898 0.338542,2.07032 q -0.989584,0.20833 -1.770835,0.20833 -1.276043,0 -1.979169,-0.40364 -0.703126,-0.40365 -0.989585,-1.05469 -0.286459,-0.66406 -0.286459,-2.77344 v -7.95574 h -1.718752 v -1.82292 h 1.718752 v -3.42448 l 2.330732,-1.40626 v 4.83074 h 2.356774 v 1.82292 H 20.62438 v 8.08595 q 0,1.0026 0.117188,1.28906 0.130209,0.28646 0.403646,0.45573 0.286459,0.16927 0.807293,0.16927 0.390626,0 1.028647,-0.0911 z"
       style="text-align:center;text-anchor:middle;stroke:none"
       id="path70302" /><path
       d="m 24.400426,139.81127 q 0,-3.84115 2.13542,-5.69011 1.783856,-1.53646 4.348964,-1.53646 2.851566,0 4.661464,1.875 1.809898,1.86198 1.809898,5.15626 0,2.66927 -0.807293,4.20573 -0.794272,1.52344 -2.330732,2.3698 -1.523439,0.84635 -3.333337,0.84635 -2.90365,0 -4.700527,-1.86198 -1.783857,-1.86198 -1.783857,-5.36459 z m 2.408858,0 q 0,2.65625 1.158855,3.98438 1.158856,1.31511 2.916671,1.31511 1.744794,0 2.903649,-1.32813 1.158856,-1.32813 1.158856,-4.04948 0,-2.56511 -1.171877,-3.88022 -1.158855,-1.32812 -2.890628,-1.32812 -1.757815,0 -2.916671,1.3151 -1.158855,1.31511 -1.158855,3.97136 z"
       style="text-align:center;text-anchor:middle;stroke:none"
       id="path70304" /><path
       d="m 39.231176,139.81127 q 0,-3.84115 2.135419,-5.69011 1.783857,-1.53646 4.348964,-1.53646 2.851566,0 4.661464,1.875 1.809898,1.86198 1.809898,5.15626 0,2.66927 -0.807292,4.20573 -0.794272,1.52344 -2.330732,2.3698 -1.52344,0.84635 -3.333338,0.84635 -2.903649,0 -4.700527,-1.86198 -1.783856,-1.86198 -1.783856,-5.36459 z m 2.408857,0 q 0,2.65625 1.158856,3.98438 1.158855,1.31511 2.91667,1.31511 1.744794,0 2.90365,-1.32813 1.158855,-1.32813 1.158855,-4.04948 0,-2.56511 -1.171876,-3.88022 -1.158856,-1.32812 -2.890629,-1.32812 -1.757815,0 -2.91667,1.3151 -1.158856,1.31511 -1.158856,3.97136 z"
       style="text-align:center;text-anchor:middle;stroke:none"
       id="path70306" /><path
       d="m 54.882235,146.72534 v -19.08856 h 2.343753 v 19.08856 z"
       style="text-align:center;text-anchor:middle;stroke:none"
       id="path70308" /><path
       d="m 63.020268,146.72534 h -2.174482 v -19.08856 h 2.343753 v 6.8099 q 1.484377,-1.86198 3.789067,-1.86198 1.276043,0 2.408857,0.52083 1.145835,0.50782 1.875003,1.44532 0.742188,0.92448 1.158855,2.23958 0.416667,1.31511 0.416667,2.81251 0,3.55469 -1.757814,5.4948 -1.757815,1.9401 -4.218756,1.9401 -2.447919,0 -3.84115,-2.04427 z m -0.02604,-7.01824 q 0,2.48699 0.677084,3.59376 1.106772,1.8099 2.994796,1.8099 1.53646,0 2.656253,-1.32813 1.119793,-1.34115 1.119793,-3.98438 0,-2.70834 -1.08073,-3.9974 -1.06771,-1.28907 -2.59115,-1.28907 -1.53646,0 -2.656253,1.34115 -1.119793,1.32813 -1.119793,3.85417 z"
       style="text-align:center;text-anchor:middle;stroke:none"
       id="path70310" /><path
       d="m 74.817159,139.81127 q 0,-3.84115 2.13542,-5.69011 1.783856,-1.53646 4.348963,-1.53646 2.851567,0 4.661465,1.875 1.809898,1.86198 1.809898,5.15626 0,2.66927 -0.807293,4.20573 -0.794272,1.52344 -2.330732,2.3698 -1.523439,0.84635 -3.333338,0.84635 -2.903649,0 -4.700526,-1.86198 -1.783857,-1.86198 -1.783857,-5.36459 z m 2.408857,0 q 0,2.65625 1.158856,3.98438 1.158856,1.31511 2.91667,1.31511 1.744794,0 2.90365,-1.32813 1.158856,-1.32813 1.158856,-4.04948 0,-2.56511 -1.171877,-3.88022 -1.158856,-1.32812 -2.890629,-1.32812 -1.757814,0 -2.91667,1.3151 -1.158856,1.31511 -1.158856,3.97136 z"
       style="text-align:center;text-anchor:middle;stroke:none"
       id="path70312" /><path
       d="m 88.957796,146.72534 5.05209,-7.18751 -4.674485,-6.64063 h 2.929691 l 2.122398,3.24219 q 0.59896,0.92448 0.963543,1.54948 0.572918,-0.85937 1.054689,-1.52344 l 2.330732,-3.26823 h 2.799486 l -4.778655,6.51042 5.143235,7.31772 h -2.877607 l -2.838545,-4.29688 -0.75521,-1.15885 -3.632817,5.45573 z"
       style="text-align:center;text-anchor:middle;stroke:none"
       id="path70314" /><path
       d="m 111.82241,146.72534 v -12.00522 h -2.07031 v -1.82292 h 2.07031 v -1.47136 q 0,-1.39323 0.2474,-2.07031 0.33854,-0.91146 1.1849,-1.47136 0.85937,-0.57292 2.39583,-0.57292 0.98959,0 2.18751,0.23438 l -0.35157,2.04427 q -0.72917,-0.13021 -1.38021,-0.13021 -1.06771,0 -1.51042,0.45573 -0.44271,0.45573 -0.44271,1.70574 v 1.27604 h 2.69532 v 1.82292 h -2.69532 v 12.00522 z"
       style="text-align:center;text-anchor:middle;stroke:none"
       id="path70316" /><path
       d="m 117.79898,139.81127 q 0,-3.84115 2.13542,-5.69011 1.78385,-1.53646 4.34896,-1.53646 2.85157,0 4.66147,1.875 1.80989,1.86198 1.80989,5.15626 0,2.66927 -0.80729,4.20573 -0.79427,1.52344 -2.33073,2.3698 -1.52344,0.84635 -3.33334,0.84635 -2.90365,0 -4.70053,-1.86198 -1.78385,-1.86198 -1.78385,-5.36459 z m 2.40886,0 q 0,2.65625 1.15885,3.98438 1.15886,1.31511 2.91667,1.31511 1.7448,0 2.90365,-1.32813 1.15886,-1.32813 1.15886,-4.04948 0,-2.56511 -1.17188,-3.88022 -1.15886,-1.32812 -2.89063,-1.32812 -1.75781,0 -2.91667,1.3151 -1.15885,1.31511 -1.15885,3.97136 z"
       style="text-align:center;text-anchor:middle;stroke:none"
       id="path70318" /><path
       d="M 133.47608,146.72534 V 132.8972 h 2.10938 v 2.09636 q 0.80729,-1.47136 1.48438,-1.94011 0.6901,-0.46875 1.51042,-0.46875 1.18489,0 2.40885,0.75521 l -0.80729,2.17448 q -0.85938,-0.50781 -1.71875,-0.50781 -0.76823,0 -1.38021,0.46875 -0.61198,0.45573 -0.8724,1.27604 -0.39062,1.25 -0.39062,2.73438 v 7.23959 z"
       style="text-align:center;text-anchor:middle;stroke:none"
       id="path70320" /><path
       d="M 149.76516,146.72534 V 132.8972 h 2.10938 v 2.09636 q 0.80729,-1.47136 1.48438,-1.94011 0.6901,-0.46875 1.51041,-0.46875 1.1849,0 2.40886,0.75521 l -0.80729,2.17448 q -0.85938,-0.50781 -1.71875,-0.50781 -0.76823,0 -1.38021,0.46875 -0.61198,0.45573 -0.8724,1.27604 -0.39063,1.25 -0.39063,2.73438 v 7.23959 z"
       style="text-align:center;text-anchor:middle;stroke:none"
       id="path70322" /><path
       d="m 167.69489,145.01961 q -1.30209,1.10677 -2.51303,1.5625 -1.19792,0.45573 -2.57813,0.45573 -2.27865,0 -3.50261,-1.10677 -1.22396,-1.11979 -1.22396,-2.85157 0,-1.01562 0.45573,-1.84896 0.46875,-0.84635 1.21094,-1.35417 0.75521,-0.50781 1.69271,-0.76823 0.69011,-0.18229 2.08334,-0.35156 2.83854,-0.33854 4.17969,-0.80729 0.013,-0.48177 0.013,-0.61198 0,-1.43229 -0.66406,-2.01823 -0.89844,-0.79427 -2.66927,-0.79427 -1.65365,0 -2.44792,0.58593 -0.78125,0.57292 -1.15886,2.04428 l -2.29167,-0.3125 q 0.3125,-1.47136 1.02865,-2.3698 0.71614,-0.91146 2.07031,-1.39323 1.35417,-0.49479 3.13803,-0.49479 1.77083,0 2.87761,0.41667 1.10677,0.41666 1.6276,1.05468 0.52084,0.62501 0.72917,1.58855 0.11719,0.59896 0.11719,2.16146 v 3.125 q 0,3.26824 0.14323,4.14063 0.15625,0.85938 0.59896,1.65365 h -2.44792 q -0.36459,-0.72917 -0.46875,-1.70573 z m -0.19532,-5.23438 q -1.27604,0.52083 -3.82813,0.88542 -1.44531,0.20833 -2.04427,0.46875 -0.59896,0.26041 -0.92448,0.76823 -0.32552,0.49479 -0.32552,1.10677 0,0.9375 0.70312,1.5625 0.71615,0.625 2.08334,0.625 1.35417,0 2.40886,-0.58594 1.05469,-0.59895 1.54948,-1.6276 0.3776,-0.79427 0.3776,-2.34376 z"
       style="text-align:center;text-anchor:middle;stroke:none"
       id="path70324" /><path
       d="m 178.61936,144.62898 0.33855,2.07032 q -0.98959,0.20833 -1.77084,0.20833 -1.27604,0 -1.97917,-0.40364 -0.70312,-0.40365 -0.98958,-1.05469 -0.28646,-0.66406 -0.28646,-2.77344 v -7.95574 h -1.71875 v -1.82292 h 1.71875 v -3.42448 l 2.33073,-1.40626 v 4.83074 h 2.35677 v 1.82292 h -2.35677 v 8.08595 q 0,1.0026 0.11719,1.28906 0.13021,0.28646 0.40364,0.45573 0.28646,0.16927 0.8073,0.16927 0.39062,0 1.02864,-0.0911 z"
       style="text-align:center;text-anchor:middle;stroke:none"
       id="path70326" /><path
       d="m 180.92407,130.33209 v -2.69531 h 2.34375 v 2.69531 z m 0,16.39325 V 132.8972 h 2.34375 v 13.82814 z"
       style="text-align:center;text-anchor:middle;stroke:none"
       id="path70328" /><path
       d="M 186.83553,146.72534 V 132.8972 h 2.10938 v 1.96615 q 1.52344,-2.27865 4.40104,-2.27865 1.25001,0 2.29167,0.45573 1.05469,0.44271 1.57553,1.17188 0.52083,0.72916 0.72916,1.73177 0.13021,0.65104 0.13021,2.27865 v 8.50261 h -2.34375 v -8.41147 q 0,-1.43229 -0.27344,-2.13542 -0.27344,-0.71614 -0.97656,-1.13281 -0.69011,-0.42969 -1.62761,-0.42969 -1.4974,0 -2.59115,0.95052 -1.08073,0.95053 -1.08073,3.60678 v 7.55209 z"
       style="text-align:center;text-anchor:middle;stroke:none"
       id="path70330" /><path
       d="m 201.23659,147.87118 2.27865,0.33854 q 0.14323,1.05469 0.79427,1.53646 0.8724,0.65104 2.38282,0.65104 1.6276,0 2.51302,-0.65104 0.88542,-0.65104 1.19792,-1.82292 0.18229,-0.71615 0.16927,-3.00782 -1.53646,1.8099 -3.82813,1.8099 -2.85157,0 -4.41407,-2.05729 -1.5625,-2.0573 -1.5625,-4.9349 0,-1.97917 0.71615,-3.64584 0.71614,-1.67969 2.07031,-2.59115 1.36719,-0.91146 3.20313,-0.91146 2.44792,0 4.03646,1.97917 v -1.66667 h 2.16147 v 11.95314 q 0,3.22917 -0.66407,4.57032 -0.65104,1.35417 -2.08333,2.13542 -1.41928,0.78125 -3.50261,0.78125 -2.47396,0 -3.9974,-1.1198 -1.52344,-1.10677 -1.47136,-3.34635 z m 1.94011,-8.30731 q 0,2.72136 1.08073,3.97136 1.08073,1.25001 2.70833,1.25001 1.61459,0 2.70834,-1.23699 1.09375,-1.25 1.09375,-3.90625 0,-2.53907 -1.13281,-3.82813 -1.11979,-1.28906 -2.70834,-1.28906 -1.5625,0 -2.65625,1.27604 -1.09375,1.26302 -1.09375,3.76302 z"
       style="text-align:center;text-anchor:middle;stroke:none"
       id="path70332" /><path
       d="m 217.10901,146.72534 v -2.66927 h 2.66927 v 2.66927 q 0,1.47136 -0.52083,2.3698 -0.52084,0.91146 -1.65365,1.40625 l -0.65104,-1.00261 q 0.74219,-0.32552 1.09375,-0.96354 0.35156,-0.625 0.39063,-1.8099 z"
       style="text-align:center;text-anchor:middle;stroke:none"
       id="path70334" /><path
       d="m 230.37725,142.59773 2.31771,-0.36458 q 0.19531,1.39323 1.08073,2.13542 0.89844,0.74219 2.5,0.74219 1.61459,0 2.39584,-0.65105 0.78125,-0.66406 0.78125,-1.54948 0,-0.79427 -0.69011,-1.25 -0.48177,-0.3125 -2.39583,-0.79427 -2.57813,-0.65104 -3.58074,-1.11979 -0.98958,-0.48178 -1.51042,-1.31511 -0.50781,-0.84635 -0.50781,-1.86198 0,-0.92448 0.41667,-1.70573 0.42969,-0.79427 1.15885,-1.31511 0.54688,-0.40364 1.48438,-0.67708 0.95052,-0.28646 2.03125,-0.28646 1.62761,0 2.85157,0.46875 1.23698,0.46875 1.82292,1.27604 0.58594,0.79427 0.80729,2.13542 l -2.29167,0.3125 q -0.15625,-1.06771 -0.91146,-1.66667 -0.74219,-0.59896 -2.10938,-0.59896 -1.61458,0 -2.30469,0.53386 -0.6901,0.53385 -0.6901,1.25 0,0.45573 0.28646,0.82031 0.28646,0.37761 0.89844,0.62501 0.35156,0.1302 2.07031,0.59895 2.48698,0.66407 3.46355,1.09376 0.98958,0.41666 1.54948,1.22396 0.5599,0.80729 0.5599,2.00521 0,1.17187 -0.69011,2.21354 -0.67708,1.02865 -1.96615,1.60157 -1.28906,0.55989 -2.91667,0.55989 -2.69531,0 -4.11459,-1.11979 -1.40625,-1.11979 -1.79687,-3.32032 z"
       style="text-align:center;text-anchor:middle;stroke:none"
       id="path70336" /><path
       d="m 243.77571,139.81127 q 0,-3.84115 2.13542,-5.69011 1.78385,-1.53646 4.34896,-1.53646 2.85157,0 4.66147,1.875 1.80989,1.86198 1.80989,5.15626 0,2.66927 -0.80729,4.20573 -0.79427,1.52344 -2.33073,2.3698 -1.52344,0.84635 -3.33334,0.84635 -2.90365,0 -4.70052,-1.86198 -1.78386,-1.86198 -1.78386,-5.36459 z m 2.40886,0 q 0,2.65625 1.15885,3.98438 1.15886,1.31511 2.91667,1.31511 1.7448,0 2.90365,-1.32813 1.15886,-1.32813 1.15886,-4.04948 0,-2.56511 -1.17188,-3.88022 -1.15886,-1.32812 -2.89063,-1.32812 -1.75781,0 -2.91667,1.3151 -1.15885,1.31511 -1.15885,3.97136 z"
       style="text-align:center;text-anchor:middle;stroke:none"
       id="path70338" /><path
       d="M 259.4528,146.72534 V 132.8972 h 2.10938 v 2.09636 q 0.80729,-1.47136 1.48437,-1.94011 0.69011,-0.46875 1.51042,-0.46875 1.1849,0 2.40886,0.75521 l -0.80729,2.17448 q -0.85938,-0.50781 -1.71876,-0.50781 -0.76823,0 -1.38021,0.46875 -0.61198,0.45573 -0.87239,1.27604 -0.39063,1.25 -0.39063,2.73438 v 7.23959 z"
       style="text-align:center;text-anchor:middle;stroke:none"
       id="path70340" /><path
       d="m 273.47625,144.62898 0.33854,2.07032 q -0.98958,0.20833 -1.77083,0.20833 -1.27604,0 -1.97917,-0.40364 -0.70313,-0.40365 -0.98958,-1.05469 -0.28646,-0.66406 -0.28646,-2.77344 v -7.95574 h -1.71876 v -1.82292 h 1.71876 v -3.42448 l 2.33073,-1.40626 v 4.83074 h 2.35677 v 1.82292 h -2.35677 v 8.08595 q 0,1.0026 0.11719,1.28906 0.1302,0.28646 0.40364,0.45573 0.28646,0.16927 0.8073,0.16927 0.39062,0 1.02864,-0.0911 z"
       style="text-align:center;text-anchor:middle;stroke:none"
       id="path70342" /><path
       d="m 275.78095,130.33209 v -2.69531 h 2.34376 v 2.69531 z m 0,16.39325 V 132.8972 h 2.34376 v 13.82814 z"
       style="text-align:center;text-anchor:middle;stroke:none"
       id="path70344" /><path
       d="M 281.6924,146.72534 V 132.8972 h 2.10938 v 1.96615 q 1.52344,-2.27865 4.40105,-2.27865 1.25,0 2.29167,0.45573 1.05469,0.44271 1.57552,1.17188 0.52083,0.72916 0.72917,1.73177 0.13021,0.65104 0.13021,2.27865 v 8.50261 h -2.34376 v -8.41147 q 0,-1.43229 -0.27344,-2.13542 -0.27343,-0.71614 -0.97656,-1.13281 -0.6901,-0.42969 -1.62761,-0.42969 -1.49739,0 -2.59114,0.95052 -1.08074,0.95053 -1.08074,3.60678 v 7.55209 z"
       style="text-align:center;text-anchor:middle;stroke:none"
       id="path70346" /><path
       d="m 296.09346,147.87118 2.27865,0.33854 q 0.14323,1.05469 0.79427,1.53646 0.8724,0.65104 2.38282,0.65104 1.62761,0 2.51302,-0.65104 0.88542,-0.65104 1.19792,-1.82292 0.18229,-0.71615 0.16927,-3.00782 -1.53646,1.8099 -3.82813,1.8099 -2.85156,0 -4.41407,-2.05729 -1.5625,-2.0573 -1.5625,-4.9349 0,-1.97917 0.71615,-3.64584 0.71615,-1.67969 2.07031,-2.59115 1.36719,-0.91146 3.20313,-0.91146 2.44792,0 4.03647,1.97917 v -1.66667 h 2.16146 v 11.95314 q 0,3.22917 -0.66407,4.57032 -0.65104,1.35417 -2.08333,2.13542 -1.41927,0.78125 -3.50261,0.78125 -2.47396,0 -3.9974,-1.1198 -1.52344,-1.10677 -1.47136,-3.34635 z m 1.94011,-8.30731 q 0,2.72136 1.08073,3.97136 1.08073,1.25001 2.70834,1.25001 1.61458,0 2.70833,-1.23699 1.09376,-1.25 1.09376,-3.90625 0,-2.53907 -1.13282,-3.82813 -1.11979,-1.28906 -2.70834,-1.28906 -1.5625,0 -2.65625,1.27604 -1.09375,1.26302 -1.09375,3.76302 z"
       style="text-align:center;text-anchor:middle;stroke:none"
       id="path70348" /><path
       d="m 372.23941,145.01961 q -1.30208,1.10677 -2.51302,1.5625 -1.19792,0.45573 -2.57813,0.45573 -2.27865,0 -3.50261,-1.10677 -1.22396,-1.11979 -1.22396,-2.85157 0,-1.01562 0.45573,-1.84896 0.46875,-0.84635 1.21094,-1.35417 0.75521,-0.50781 1.69271,-0.76823 0.6901,-0.18229 2.08333,-0.35156 2.83855,-0.33854 4.1797,-0.80729 0.013,-0.48177 0.013,-0.61198 0,-1.43229 -0.66406,-2.01823 -0.89844,-0.79427 -2.66928,-0.79427 -1.65365,0 -2.44792,0.58593 -0.78125,0.57292 -1.15885,2.04428 l -2.29167,-0.3125 q 0.3125,-1.47136 1.02864,-2.3698 0.71615,-0.91146 2.07032,-1.39323 1.35417,-0.49479 3.13802,-0.49479 1.77084,0 2.87761,0.41667 1.10677,0.41666 1.62761,1.05468 0.52083,0.62501 0.72916,1.58855 0.11719,0.59896 0.11719,2.16146 v 3.125 q 0,3.26824 0.14323,4.14063 0.15625,0.85938 0.59896,1.65365 h -2.44792 q -0.36458,-0.72917 -0.46875,-1.70573 z m -0.19531,-5.23438 q -1.27605,0.52083 -3.82813,0.88542 -1.44532,0.20833 -2.04428,0.46875 -0.59895,0.26041 -0.92448,0.76823 -0.32552,0.49479 -0.32552,1.10677 0,0.9375 0.70313,1.5625 0.71615,0.625 2.08333,0.625 1.35417,0 2.40886,-0.58594 1.05469,-0.59895 1.54948,-1.6276 0.37761,-0.79427 0.37761,-2.34376 z"
       style="text-align:center;text-anchor:middle;stroke:none"
       id="path70350" /><path
       d="M 378.04671,146.72534 V 132.8972 h 2.10938 v 1.96615 q 1.52344,-2.27865 4.40105,-2.27865 1.25,0 2.29167,0.45573 1.05468,0.44271 1.57552,1.17188 0.52083,0.72916 0.72917,1.73177 0.1302,0.65104 0.1302,2.27865 v 8.50261 h -2.34375 v -8.41147 q 0,-1.43229 -0.27344,-2.13542 -0.27343,-0.71614 -0.97656,-1.13281 -0.69011,-0.42969 -1.62761,-0.42969 -1.49739,0 -2.59115,0.95052 -1.08073,0.95053 -1.08073,3.60678 v 7.55209 z"
       style="text-align:center;text-anchor:middle;stroke:none"
       id="path70352" /><path
       d="m 401.84883,146.72534 v -1.74479 q -1.31511,2.05729 -3.8672,2.05729 -1.65364,0 -3.04688,-0.91146 -1.38021,-0.91146 -2.14844,-2.53906 -0.7552,-1.64063 -0.7552,-3.76303 0,-2.07031 0.6901,-3.75 0.69011,-1.69271 2.07032,-2.59115 1.38021,-0.89844 3.08594,-0.89844 1.25,0 2.22656,0.53385 0.97657,0.52084 1.58855,1.36719 v -6.84896 h 2.33073 v 19.08856 z m -7.40887,-6.90105 q 0,2.65625 1.1198,3.97136 1.11979,1.31511 2.64323,1.31511 1.53646,0 2.60417,-1.25001 1.08073,-1.26302 1.08073,-3.84115 0,-2.83854 -1.09375,-4.16667 -1.09375,-1.32812 -2.69532,-1.32812 -1.5625,0 -2.61719,1.27604 -1.04167,1.27604 -1.04167,4.02344 z"
       style="text-align:center;text-anchor:middle;stroke:none"
       id="path70354" /><path
       d="m 424.1405,141.66023 2.30469,0.29948 q -0.3776,2.38282 -1.9401,3.73698 -1.54948,1.34115 -3.81511,1.34115 -2.83855,0 -4.57032,-1.84896 -1.71875,-1.86198 -1.71875,-5.32553 0,-2.23958 0.74219,-3.91927 0.74218,-1.67969 2.2526,-2.51303 1.52344,-0.84635 3.3073,-0.84635 2.25261,0 3.6849,1.14583 1.43229,1.13282 1.83594,3.22917 l -2.27865,0.35157 q -0.32552,-1.39323 -1.15886,-2.09636 -0.82031,-0.70313 -1.99219,-0.70313 -1.77083,0 -2.8776,1.27605 -1.10678,1.26302 -1.10678,4.01042 0,2.78646 1.06771,4.04948 1.06771,1.26303 2.78647,1.26303 1.38021,0 2.30469,-0.84636 0.92448,-0.84635 1.17187,-2.60417 z"
       style="text-align:center;text-anchor:middle;stroke:none"
       id="path70356" /><path
       d="m 427.578,139.81127 q 0,-3.84115 2.13542,-5.69011 1.78386,-1.53646 4.34896,-1.53646 2.85157,0 4.66147,1.875 1.8099,1.86198 1.8099,5.15626 0,2.66927 -0.8073,4.20573 -0.79427,1.52344 -2.33073,2.3698 -1.52344,0.84635 -3.33334,0.84635 -2.90365,0 -4.70052,-1.86198 -1.78386,-1.86198 -1.78386,-5.36459 z m 2.40886,0 q 0,2.65625 1.15885,3.98438 1.15886,1.31511 2.91667,1.31511 1.7448,0 2.90365,-1.32813 1.15886,-1.32813 1.15886,-4.04948 0,-2.56511 -1.17188,-3.88022 -1.15885,-1.32812 -2.89063,-1.32812 -1.75781,0 -2.91667,1.3151 -1.15885,1.31511 -1.15885,3.97136 z"
       style="text-align:center;text-anchor:middle;stroke:none"
       id="path70358" /><path
       d="M 443.28115,146.72534 V 132.8972 h 2.09635 v 1.94011 q 0.65105,-1.01563 1.73178,-1.62761 1.08073,-0.625 2.46094,-0.625 1.53646,0 2.51302,0.63802 0.98959,0.63802 1.39323,1.78386 1.64063,-2.42188 4.27084,-2.42188 2.0573,0 3.16407,1.14583 1.10677,1.13282 1.10677,3.50261 v 9.4922 h -2.33073 v -8.71095 q 0,-1.40625 -0.23438,-2.01823 -0.22135,-0.625 -0.82031,-1.0026 -0.59896,-0.37761 -1.40625,-0.37761 -1.45834,0 -2.42188,0.97657 -0.96354,0.96354 -0.96354,3.09896 v 8.03386 h -2.34376 v -8.98438 q 0,-1.56251 -0.57291,-2.34376 -0.57292,-0.78125 -1.87501,-0.78125 -0.98958,0 -1.83594,0.52084 -0.83333,0.52083 -1.21094,1.52343 -0.3776,1.00261 -0.3776,2.89063 v 7.17449 z"
       style="text-align:center;text-anchor:middle;stroke:none"
       id="path70360" /><path
       d="M 465.49474,152.02483 V 132.8972 h 2.13542 v 1.79688 q 0.75521,-1.05469 1.70573,-1.57553 0.95052,-0.53385 2.30469,-0.53385 1.77084,0 3.125,0.91146 1.35417,0.91146 2.04428,2.57813 0.6901,1.65364 0.6901,3.63281 0,2.1224 -0.76823,3.82813 -0.75521,1.69271 -2.21354,2.60417 -1.44532,0.89844 -3.04688,0.89844 -1.17188,0 -2.10938,-0.49479 -0.92448,-0.49479 -1.52344,-1.25 v 6.73178 z m 2.1224,-12.13543 q 0,2.66927 1.08073,3.94531 1.08073,1.27605 2.61719,1.27605 1.5625,0 2.66927,-1.31511 1.1198,-1.32813 1.1198,-4.10157 0,-2.64323 -1.09375,-3.95834 -1.08074,-1.3151 -2.59115,-1.3151 -1.4974,0 -2.65626,1.40625 -1.14583,1.39323 -1.14583,4.06251 z"
       style="text-align:center;text-anchor:middle;stroke:none"
       id="path70362" /><path
       d="m 489.34894,145.01961 q -1.30209,1.10677 -2.51303,1.5625 -1.19791,0.45573 -2.57812,0.45573 -2.27865,0 -3.50261,-1.10677 -1.22396,-1.11979 -1.22396,-2.85157 0,-1.01562 0.45573,-1.84896 0.46875,-0.84635 1.21094,-1.35417 0.75521,-0.50781 1.69271,-0.76823 0.6901,-0.18229 2.08333,-0.35156 2.83855,-0.33854 4.1797,-0.80729 0.013,-0.48177 0.013,-0.61198 0,-1.43229 -0.66407,-2.01823 -0.89844,-0.79427 -2.66927,-0.79427 -1.65365,0 -2.44792,0.58593 -0.78125,0.57292 -1.15886,2.04428 l -2.29167,-0.3125 q 0.3125,-1.47136 1.02865,-2.3698 0.71615,-0.91146 2.07032,-1.39323 1.35416,-0.49479 3.13802,-0.49479 1.77084,0 2.87761,0.41667 1.10677,0.41666 1.6276,1.05468 0.52084,0.62501 0.72917,1.58855 0.11719,0.59896 0.11719,2.16146 v 3.125 q 0,3.26824 0.14323,4.14063 0.15625,0.85938 0.59896,1.65365 h -2.44792 q -0.36459,-0.72917 -0.46875,-1.70573 z m -0.19531,-5.23438 q -1.27605,0.52083 -3.82813,0.88542 -1.44532,0.20833 -2.04428,0.46875 -0.59896,0.26041 -0.92448,0.76823 -0.32552,0.49479 -0.32552,1.10677 0,0.9375 0.70313,1.5625 0.71614,0.625 2.08333,0.625 1.35417,0 2.40886,-0.58594 1.05469,-0.59895 1.54948,-1.6276 0.37761,-0.79427 0.37761,-2.34376 z"
       style="text-align:center;text-anchor:middle;stroke:none"
       id="path70364" /><path
       d="M 495.1302,146.72534 V 132.8972 h 2.10937 v 2.09636 q 0.8073,-1.47136 1.48438,-1.94011 0.69011,-0.46875 1.51042,-0.46875 1.1849,0 2.40886,0.75521 l -0.8073,2.17448 q -0.85937,-0.50781 -1.71875,-0.50781 -0.76823,0 -1.38021,0.46875 -0.61198,0.45573 -0.87239,1.27604 -0.39063,1.25 -0.39063,2.73438 v 7.23959 z"
       style="text-align:center;text-anchor:middle;stroke:none"
       id="path70366" /><path
       d="m 504.04948,130.33209 v -2.69531 h 2.34375 v 2.69531 z m 0,16.39325 V 132.8972 h 2.34375 v 13.82814 z"
       style="text-align:center;text-anchor:middle;stroke:none"
       id="path70368" /><path
       d="M 509.96096,146.72534 V 132.8972 h 2.10937 v 1.96615 q 1.52344,-2.27865 4.40105,-2.27865 1.25,0 2.29167,0.45573 1.05469,0.44271 1.57552,1.17188 0.52084,0.72916 0.72917,1.73177 0.13021,0.65104 0.13021,2.27865 v 8.50261 h -2.34375 v -8.41147 q 0,-1.43229 -0.27344,-2.13542 -0.27344,-0.71614 -0.97656,-1.13281 -0.69011,-0.42969 -1.62761,-0.42969 -1.4974,0 -2.59115,0.95052 -1.08073,0.95053 -1.08073,3.60678 v 7.55209 z"
       style="text-align:center;text-anchor:middle;stroke:none"
       id="path70370" /><path
       d="m 524.36202,147.87118 2.27865,0.33854 q 0.14323,1.05469 0.79427,1.53646 0.8724,0.65104 2.38281,0.65104 1.62761,0 2.51303,-0.65104 0.88542,-0.65104 1.19792,-1.82292 0.18229,-0.71615 0.16927,-3.00782 -1.53646,1.8099 -3.82813,1.8099 -2.85157,0 -4.41407,-2.05729 -1.5625,-2.0573 -1.5625,-4.9349 0,-1.97917 0.71614,-3.64584 0.71615,-1.67969 2.07032,-2.59115 1.36719,-0.91146 3.20313,-0.91146 2.44792,0 4.03646,1.97917 v -1.66667 h 2.16146 v 11.95314 q 0,3.22917 -0.66406,4.57032 -0.65104,1.35417 -2.08334,2.13542 -1.41927,0.78125 -3.50261,0.78125 -2.47396,0 -3.9974,-1.1198 -1.52344,-1.10677 -1.47135,-3.34635 z m 1.9401,-8.30731 q 0,2.72136 1.08074,3.97136 1.08073,1.25001 2.70833,1.25001 1.61459,0 2.70834,-1.23699 1.09375,-1.25 1.09375,-3.90625 0,-2.53907 -1.13281,-3.82813 -1.1198,-1.28906 -2.70834,-1.28906 -1.5625,0 -2.65625,1.27604 -1.09376,1.26302 -1.09376,3.76302 z"
       style="text-align:center;text-anchor:middle;stroke:none"
       id="path70372" /><path
       d="m 106.18439,175.68632 q -1.30209,1.10677 -2.51303,1.5625 -1.19792,0.45573 -2.57813,0.45573 -2.278646,0 -3.502606,-1.10678 -1.22396,-1.11979 -1.22396,-2.85156 0,-1.01563 0.45573,-1.84896 0.468751,-0.84636 1.210939,-1.35417 0.755209,-0.50781 1.692711,-0.76823 0.690106,-0.18229 2.083336,-0.35156 2.83854,-0.33855 4.17969,-0.8073 0.013,-0.48177 0.013,-0.61198 0,-1.43229 -0.66406,-2.01823 -0.89844,-0.79427 -2.66927,-0.79427 -1.65365,0 -2.44792,0.58594 -0.781255,0.57292 -1.15886,2.04427 l -2.291669,-0.3125 q 0.3125,-1.47135 1.028647,-2.36979 0.716147,-0.91146 2.070315,-1.39323 1.354167,-0.4948 3.138027,-0.4948 1.77083,0 2.87761,0.41667 1.10677,0.41667 1.6276,1.05469 0.52084,0.625 0.72917,1.58854 0.11719,0.59896 0.11719,2.16146 v 3.12501 q 0,3.26823 0.14323,4.14063 0.15625,0.85937 0.59896,1.65365 h -2.44792 q -0.36459,-0.72917 -0.46875,-1.70573 z m -0.19532,-5.23439 q -1.27604,0.52084 -3.82813,0.88542 -1.44531,0.20834 -2.04427,0.46875 -0.59896,0.26042 -0.924481,0.76823 -0.325521,0.49479 -0.325521,1.10677 0,0.93751 0.703125,1.56251 0.716147,0.625 2.083337,0.625 1.35417,0 2.40886,-0.58594 1.05469,-0.59896 1.54948,-1.62761 0.3776,-0.79427 0.3776,-2.34375 z"
       style="text-align:center;text-anchor:middle;stroke:none"
       id="path70374" /><path
       d="m 121.0542,177.39205 v -2.03126 q -1.61459,2.34376 -4.38803,2.34376 -1.22396,0 -2.29167,-0.46875 -1.05469,-0.46875 -1.57552,-1.17188 -0.50782,-0.71615 -0.71615,-1.74479 -0.14323,-0.69011 -0.14323,-2.18751 v -8.56772 h 2.34375 v 7.66928 q 0,1.83594 0.14323,2.47397 0.22136,0.92448 0.9375,1.45833 0.71615,0.52084 1.77084,0.52084 1.05469,0 1.97917,-0.53386 0.92448,-0.54688 1.30208,-1.47136 0.39063,-0.9375 0.39063,-2.70833 v -7.40887 h 2.34375 v 13.82815 z"
       style="text-align:center;text-anchor:middle;stroke:none"
       id="path70376" /><path
       d="m 135.7938,177.39205 v -1.7448 q -1.31511,2.0573 -3.8672,2.0573 -1.65364,0 -3.04687,-0.91146 -1.38021,-0.91146 -2.14844,-2.53907 -0.75521,-1.64063 -0.75521,-3.76302 0,-2.07032 0.6901,-3.75001 0.69011,-1.69271 2.07032,-2.59115 1.38021,-0.89844 3.08594,-0.89844 1.25,0 2.22656,0.53386 0.97657,0.52083 1.58855,1.36719 v -6.84897 h 2.33073 v 19.08857 z m -7.40887,-6.90105 q 0,2.65625 1.1198,3.97136 1.11979,1.3151 2.64323,1.3151 1.53646,0 2.60417,-1.25 1.08073,-1.26302 1.08073,-3.84115 0,-2.83855 -1.09375,-4.16667 -1.09375,-1.32813 -2.69532,-1.32813 -1.5625,0 -2.61719,1.27604 -1.04167,1.27605 -1.04167,4.02345 z"
       style="text-align:center;text-anchor:middle;stroke:none"
       id="path70378" /><path
       d="m 141.6662,160.9988 v -2.69532 h 2.34375 v 2.69532 z m 0,16.39325 V 163.5639 h 2.34375 v 13.82815 z"
       style="text-align:center;text-anchor:middle;stroke:none"
       id="path70380" /><path
       d="m 146.70527,170.47798 q 0,-3.84116 2.13542,-5.69012 1.78385,-1.53646 4.34896,-1.53646 2.85157,0 4.66147,1.87501 1.80989,1.86198 1.80989,5.15625 0,2.66928 -0.80729,4.20574 -0.79427,1.52344 -2.33073,2.36979 -1.52344,0.84636 -3.33334,0.84636 -2.90365,0 -4.70053,-1.86198 -1.78385,-1.86199 -1.78385,-5.36459 z m 2.40886,0 q 0,2.65625 1.15885,3.98438 1.15886,1.3151 2.91667,1.3151 1.7448,0 2.90365,-1.32813 1.15886,-1.32812 1.15886,-4.04948 0,-2.56511 -1.17188,-3.88021 -1.15886,-1.32813 -2.89063,-1.32813 -1.75781,0 -2.91667,1.31511 -1.15885,1.3151 -1.15885,3.97136 z"
       style="text-align:center;text-anchor:middle;stroke:none"
       id="path70382" /><path
       d="m 168.87978,173.26444 2.31771,-0.36459 q 0.19531,1.39323 1.08073,2.13542 0.89844,0.74219 2.5,0.74219 1.61459,0 2.39584,-0.65104 0.78125,-0.66406 0.78125,-1.54948 0,-0.79427 -0.69011,-1.25 -0.48177,-0.3125 -2.39583,-0.79428 -2.57813,-0.65104 -3.58074,-1.11979 -0.98958,-0.48177 -1.51041,-1.3151 -0.50782,-0.84636 -0.50782,-1.86199 0,-0.92448 0.41667,-1.70573 0.42969,-0.79427 1.15885,-1.3151 0.54688,-0.40365 1.48438,-0.67709 0.95052,-0.28646 2.03125,-0.28646 1.62761,0 2.85157,0.46875 1.23698,0.46875 1.82292,1.27605 0.58594,0.79427 0.80729,2.13542 l -2.29167,0.3125 q -0.15625,-1.06771 -0.91146,-1.66667 -0.74219,-0.59896 -2.10937,-0.59896 -1.61459,0 -2.3047,0.53385 -0.6901,0.53386 -0.6901,1.25001 0,0.45573 0.28646,0.82031 0.28646,0.3776 0.89844,0.625 0.35156,0.13021 2.07031,0.59896 2.48698,0.66406 3.46355,1.09375 0.98958,0.41667 1.54948,1.22396 0.5599,0.80729 0.5599,2.00521 0,1.17188 -0.69011,2.21355 -0.67708,1.02864 -1.96615,1.60156 -1.28906,0.5599 -2.91667,0.5599 -2.69531,0 -4.11459,-1.1198 -1.40625,-1.11979 -1.79687,-3.32031 z"
       style="text-align:center;text-anchor:middle;stroke:none"
       id="path70384" /><path
       d="m 192.17408,175.68632 q -1.30209,1.10677 -2.51303,1.5625 -1.19791,0.45573 -2.57812,0.45573 -2.27865,0 -3.50261,-1.10678 -1.22396,-1.11979 -1.22396,-2.85156 0,-1.01563 0.45573,-1.84896 0.46875,-0.84636 1.21094,-1.35417 0.75521,-0.50781 1.69271,-0.76823 0.6901,-0.18229 2.08333,-0.35156 2.83855,-0.33855 4.1797,-0.8073 0.013,-0.48177 0.013,-0.61198 0,-1.43229 -0.66407,-2.01823 -0.89844,-0.79427 -2.66927,-0.79427 -1.65365,0 -2.44792,0.58594 -0.78125,0.57292 -1.15886,2.04427 l -2.29167,-0.3125 q 0.3125,-1.47135 1.02865,-2.36979 0.71615,-0.91146 2.07032,-1.39323 1.35416,-0.4948 3.13802,-0.4948 1.77084,0 2.87761,0.41667 1.10677,0.41667 1.6276,1.05469 0.52084,0.625 0.72917,1.58854 0.11719,0.59896 0.11719,2.16146 v 3.12501 q 0,3.26823 0.14323,4.14063 0.15625,0.85937 0.59896,1.65365 h -2.44792 q -0.36459,-0.72917 -0.46875,-1.70573 z m -0.19531,-5.23439 q -1.27605,0.52084 -3.82813,0.88542 -1.44532,0.20834 -2.04428,0.46875 -0.59896,0.26042 -0.92448,0.76823 -0.32552,0.49479 -0.32552,1.10677 0,0.93751 0.70313,1.56251 0.71614,0.625 2.08333,0.625 1.35417,0 2.40886,-0.58594 1.05469,-0.59896 1.54948,-1.62761 0.37761,-0.79427 0.37761,-2.34375 z"
       style="text-align:center;text-anchor:middle;stroke:none"
       id="path70386" /><path
       d="M 197.98137,177.39205 V 163.5639 h 2.09636 v 1.94011 q 0.65104,-1.01563 1.73177,-1.62761 1.08073,-0.625 2.46094,-0.625 1.53646,0 2.51303,0.63803 0.98958,0.63802 1.39323,1.78385 1.64062,-2.42188 4.27083,-2.42188 2.0573,0 3.16407,1.14584 1.10677,1.13281 1.10677,3.50261 v 9.4922 h -2.33073 v -8.71095 q 0,-1.40625 -0.23437,-2.01823 -0.22136,-0.625 -0.82032,-1.00261 -0.59896,-0.3776 -1.40625,-0.3776 -1.45833,0 -2.42188,0.97656 -0.96354,0.96354 -0.96354,3.09896 v 8.03387 h -2.34375 v -8.98439 q 0,-1.5625 -0.57292,-2.34375 -0.57292,-0.78125 -1.875,-0.78125 -0.98959,0 -1.83594,0.52083 -0.83334,0.52083 -1.21094,1.52344 -0.37761,1.00261 -0.37761,2.89063 v 7.17449 z"
       style="text-align:center;text-anchor:middle;stroke:none"
       id="path70388" /><path
       d="M 220.19495,182.69153 V 163.5639 h 2.13542 v 1.79688 q 0.75521,-1.05469 1.70573,-1.57552 0.95052,-0.53386 2.30469,-0.53386 1.77083,0 3.125,0.91146 1.35417,0.91146 2.04428,2.57813 0.6901,1.65365 0.6901,3.63282 0,2.1224 -0.76823,3.82813 -0.75521,1.69271 -2.21354,2.60417 -1.44532,0.89844 -3.04688,0.89844 -1.17188,0 -2.10938,-0.4948 -0.92448,-0.49479 -1.52344,-1.25 v 6.73178 z m 2.1224,-12.13543 q 0,2.66927 1.08073,3.94532 1.08073,1.27604 2.61719,1.27604 1.5625,0 2.66927,-1.3151 1.1198,-1.32813 1.1198,-4.10157 0,-2.64323 -1.09376,-3.95834 -1.08073,-1.31511 -2.59115,-1.31511 -1.49739,0 -2.65625,1.40626 -1.14583,1.39323 -1.14583,4.0625 z"
       style="text-align:center;text-anchor:middle;stroke:none"
       id="path70390" /><path
       d="m 234.97361,177.39205 v -19.08857 h 2.34376 v 19.08857 z"
       style="text-align:center;text-anchor:middle;stroke:none"
       id="path70392" /><path
       d="m 250.41634,172.93892 2.42188,0.29948 q -0.57292,2.12239 -2.1224,3.29427 -1.54948,1.17188 -3.95834,1.17188 -3.03386,0 -4.81771,-1.86198 -1.77084,-1.87501 -1.77084,-5.24741 0,-3.48958 1.79688,-5.41667 1.79688,-1.92709 4.66146,-1.92709 2.77344,0 4.53126,1.88803 1.75781,1.88802 1.75781,5.3125 0,0.20834 -0.013,0.625 h -10.31251 q 0.13021,2.27865 1.28906,3.48959 1.15886,1.21094 2.89063,1.21094 1.28907,0 2.20053,-0.67708 0.91145,-0.67709 1.44531,-2.16146 z m -7.69532,-3.78907 h 7.72136 q -0.15625,-1.7448 -0.88542,-2.61719 -1.11979,-1.35417 -2.90365,-1.35417 -1.61458,0 -2.72135,1.08073 -1.09375,1.08073 -1.21094,2.89063 z"
       style="text-align:center;text-anchor:middle;stroke:none"
       id="path70394" /><path
       d="m 254.84343,173.26444 2.31771,-0.36459 q 0.19531,1.39323 1.08073,2.13542 0.89844,0.74219 2.50001,0.74219 1.61458,0 2.39583,-0.65104 0.78125,-0.66406 0.78125,-1.54948 0,-0.79427 -0.6901,-1.25 -0.48177,-0.3125 -2.39584,-0.79428 -2.57813,-0.65104 -3.58073,-1.11979 -0.98959,-0.48177 -1.51042,-1.3151 -0.50781,-0.84636 -0.50781,-1.86199 0,-0.92448 0.41666,-1.70573 0.42969,-0.79427 1.15886,-1.3151 0.54687,-0.40365 1.48438,-0.67709 0.95052,-0.28646 2.03125,-0.28646 1.6276,0 2.85156,0.46875 1.23698,0.46875 1.82292,1.27605 0.58594,0.79427 0.8073,2.13542 l -2.29167,0.3125 q -0.15625,-1.06771 -0.91146,-1.66667 -0.74219,-0.59896 -2.10938,-0.59896 -1.61459,0 -2.30469,0.53385 -0.69011,0.53386 -0.69011,1.25001 0,0.45573 0.28646,0.82031 0.28646,0.3776 0.89844,0.625 0.35156,0.13021 2.07032,0.59896 2.48698,0.66406 3.46354,1.09375 0.98959,0.41667 1.54948,1.22396 0.5599,0.80729 0.5599,2.00521 0,1.17188 -0.69011,2.21355 -0.67708,1.02864 -1.96614,1.60156 -1.28907,0.5599 -2.91667,0.5599 -2.69532,0 -4.11459,-1.1198 -1.40625,-1.11979 -1.79688,-3.32031 z"
       style="text-align:center;text-anchor:middle;stroke:none"
       id="path70396" /><path
       d="m 276.53615,160.9988 v -2.69532 h 2.34376 v 2.69532 z m 0,16.39325 V 163.5639 h 2.34376 v 13.82815 z"
       style="text-align:center;text-anchor:middle;stroke:none"
       id="path70398" /><path
       d="M 282.44763,177.39205 V 163.5639 h 2.10938 v 1.96615 q 1.52344,-2.27865 4.40105,-2.27865 1.25,0 2.29167,0.45573 1.05469,0.44271 1.57552,1.17188 0.52083,0.72917 0.72917,1.73177 0.13021,0.65105 0.13021,2.27865 v 8.50262 h -2.34376 v -8.41147 q 0,-1.4323 -0.27343,-2.13542 -0.27344,-0.71615 -0.97657,-1.13282 -0.6901,-0.42968 -1.6276,-0.42968 -1.4974,0 -2.59115,0.95052 -1.08073,0.95052 -1.08073,3.60677 v 7.5521 z"
       style="text-align:center;text-anchor:middle;stroke:none"
       id="path70400" /><path
       d="m 309.80444,175.29569 0.33854,2.07031 q -0.98959,0.20834 -1.77084,0.20834 -1.27604,0 -1.97917,-0.40365 -0.70312,-0.40364 -0.98958,-1.05469 -0.28646,-0.66406 -0.28646,-2.77344 v -7.95574 h -1.71875 v -1.82292 h 1.71875 v -3.42448 l 2.33073,-1.40625 v 4.83073 h 2.35678 v 1.82292 h -2.35678 v 8.08595 q 0,1.00261 0.11719,1.28906 0.13021,0.28646 0.40365,0.45573 0.28646,0.16928 0.80729,0.16928 0.39062,0 1.02865,-0.0911 z"
       style="text-align:center;text-anchor:middle;stroke:none"
       id="path70402" /><path
       d="m 312.0961,177.39205 v -19.08857 h 2.34375 v 6.84897 q 1.64063,-1.90105 4.14063,-1.90105 1.53647,0 2.66928,0.61198 1.13281,0.59896 1.61458,1.66667 0.4948,1.06771 0.4948,3.09896 v 8.76304 h -2.34376 v -8.76304 q 0,-1.75781 -0.76823,-2.55208 -0.75521,-0.80729 -2.14844,-0.80729 -1.04166,0 -1.96614,0.54687 -0.91146,0.53386 -1.30209,1.45834 -0.39063,0.92448 -0.39063,2.55208 v 7.56512 z"
       style="text-align:center;text-anchor:middle;stroke:none"
       id="path70404" /><path
       d="m 336.39301,172.93892 2.42188,0.29948 q -0.57292,2.12239 -2.1224,3.29427 -1.54948,1.17188 -3.95834,1.17188 -3.03386,0 -4.81771,-1.86198 -1.77084,-1.87501 -1.77084,-5.24741 0,-3.48958 1.79688,-5.41667 1.79687,-1.92709 4.66146,-1.92709 2.77344,0 4.53126,1.88803 1.75781,1.88802 1.75781,5.3125 0,0.20834 -0.013,0.625 h -10.31251 q 0.13021,2.27865 1.28906,3.48959 1.15886,1.21094 2.89063,1.21094 1.28907,0 2.20052,-0.67708 0.91146,-0.67709 1.44532,-2.16146 z m -7.69532,-3.78907 h 7.72136 q -0.15625,-1.7448 -0.88542,-2.61719 -1.11979,-1.35417 -2.90365,-1.35417 -1.61458,0 -2.72135,1.08073 -1.09376,1.08073 -1.21094,2.89063 z"
       style="text-align:center;text-anchor:middle;stroke:none"
       id="path70406" /><path
       d="m 351.32792,177.39205 h -2.17448 v -19.08857 h 2.34375 v 6.80991 q 1.48438,-1.86199 3.78907,-1.86199 1.27604,0 2.40886,0.52084 1.14583,0.50781 1.875,1.44531 0.74219,0.92448 1.15885,2.23959 0.41667,1.3151 0.41667,2.8125 0,3.55469 -1.75781,5.4948 -1.75782,1.94011 -4.21876,1.94011 -2.44792,0 -3.84115,-2.04428 z m -0.026,-7.01824 q 0,2.48698 0.67708,3.59375 1.10678,1.8099 2.9948,1.8099 1.53646,0 2.65625,-1.32813 1.1198,-1.34114 1.1198,-3.98438 0,-2.70833 -1.08074,-3.9974 -1.0677,-1.28906 -2.59114,-1.28906 -1.53646,0 -2.65626,1.34115 -1.11979,1.32812 -1.11979,3.85417 z"
       style="text-align:center;text-anchor:middle;stroke:none"
       id="path70408" /><path
       d="M 363.97117,177.39205 V 163.5639 h 2.10938 v 2.09636 q 0.80729,-1.47136 1.48437,-1.94011 0.69011,-0.46875 1.51042,-0.46875 1.1849,0 2.40886,0.75521 l -0.80729,2.17448 q -0.85938,-0.50781 -1.71876,-0.50781 -0.76823,0 -1.38021,0.46875 -0.61198,0.45573 -0.87239,1.27605 -0.39063,1.25 -0.39063,2.73437 v 7.2396 z"
       style="text-align:center;text-anchor:middle;stroke:none"
       id="path70410" /><path
       d="m 372.00503,170.47798 q 0,-3.84116 2.13542,-5.69012 1.78386,-1.53646 4.34896,-1.53646 2.85157,0 4.66147,1.87501 1.8099,1.86198 1.8099,5.15625 0,2.66928 -0.8073,4.20574 -0.79427,1.52344 -2.33073,2.36979 -1.52344,0.84636 -3.33334,0.84636 -2.90365,0 -4.70052,-1.86198 -1.78386,-1.86199 -1.78386,-5.36459 z m 2.40886,0 q 0,2.65625 1.15885,3.98438 1.15886,1.3151 2.91667,1.3151 1.7448,0 2.90365,-1.32813 1.15886,-1.32812 1.15886,-4.04948 0,-2.56511 -1.17188,-3.88021 -1.15885,-1.32813 -2.89063,-1.32813 -1.75781,0 -2.91667,1.31511 -1.15885,1.3151 -1.15885,3.97136 z"
       style="text-align:center;text-anchor:middle;stroke:none"
       id="path70412" /><path
       d="m 390.26026,177.39205 -4.23177,-13.82815 h 2.42188 l 2.20052,7.98179 0.82031,2.96875 q 0.0521,-0.22136 0.71615,-2.85157 l 2.20052,-8.09897 h 2.40886 l 2.07032,8.02085 0.6901,2.64323 0.79427,-2.66927 2.3698,-7.99481 h 2.27865 l -4.32293,13.82815 h -2.4349 l -2.20052,-8.28126 -0.53385,-2.35678 -2.79949,10.63804 z"
       style="text-align:center;text-anchor:middle;stroke:none"
       id="path70414" /><path
       d="m 406.02852,173.26444 2.31771,-0.36459 q 0.19531,1.39323 1.08073,2.13542 0.89844,0.74219 2.5,0.74219 1.61459,0 2.39584,-0.65104 0.78125,-0.66406 0.78125,-1.54948 0,-0.79427 -0.6901,-1.25 -0.48177,-0.3125 -2.39584,-0.79428 -2.57813,-0.65104 -3.58073,-1.11979 -0.98959,-0.48177 -1.51042,-1.3151 -0.50782,-0.84636 -0.50782,-1.86199 0,-0.92448 0.41667,-1.70573 0.42969,-0.79427 1.15886,-1.3151 0.54687,-0.40365 1.48437,-0.67709 0.95053,-0.28646 2.03126,-0.28646 1.6276,0 2.85156,0.46875 1.23698,0.46875 1.82292,1.27605 0.58594,0.79427 0.80729,2.13542 l -2.29166,0.3125 q -0.15625,-1.06771 -0.91146,-1.66667 -0.74219,-0.59896 -2.10938,-0.59896 -1.61459,0 -2.30469,0.53385 -0.69011,0.53386 -0.69011,1.25001 0,0.45573 0.28646,0.82031 0.28646,0.3776 0.89844,0.625 0.35156,0.13021 2.07032,0.59896 2.48698,0.66406 3.46354,1.09375 0.98959,0.41667 1.54948,1.22396 0.5599,0.80729 0.5599,2.00521 0,1.17188 -0.69011,2.21355 -0.67708,1.02864 -1.96614,1.60156 -1.28907,0.5599 -2.91667,0.5599 -2.69532,0 -4.11459,-1.1198 -1.40626,-1.11979 -1.79688,-3.32031 z"
       style="text-align:center;text-anchor:middle;stroke:none"
       id="path70416" /><path
       d="m 429.76552,172.93892 2.42188,0.29948 q -0.57292,2.12239 -2.1224,3.29427 -1.54948,1.17188 -3.95834,1.17188 -3.03386,0 -4.81771,-1.86198 -1.77084,-1.87501 -1.77084,-5.24741 0,-3.48958 1.79688,-5.41667 1.79688,-1.92709 4.66146,-1.92709 2.77345,0 4.53126,1.88803 1.75781,1.88802 1.75781,5.3125 0,0.20834 -0.013,0.625 h -10.31251 q 0.13021,2.27865 1.28907,3.48959 1.15885,1.21094 2.89062,1.21094 1.28907,0 2.20053,-0.67708 0.91146,-0.67709 1.44531,-2.16146 z m -7.69532,-3.78907 h 7.72136 q -0.15625,-1.7448 -0.88541,-2.61719 -1.1198,-1.35417 -2.90365,-1.35417 -1.61459,0 -2.72136,1.08073 -1.09375,1.08073 -1.21094,2.89063 z"
       style="text-align:center;text-anchor:middle;stroke:none"
       id="path70418" /><path
       d="M 435.10407,177.39205 V 163.5639 h 2.10938 v 2.09636 q 0.80729,-1.47136 1.48438,-1.94011 0.6901,-0.46875 1.51041,-0.46875 1.1849,0 2.40886,0.75521 l -0.80729,2.17448 q -0.85938,-0.50781 -1.71875,-0.50781 -0.76823,0 -1.38021,0.46875 -0.61198,0.45573 -0.8724,1.27605 -0.39063,1.25 -0.39063,2.73437 v 7.2396 z"
       style="text-align:center;text-anchor:middle;stroke:none"
       id="path70420" /></g><g
     aria-label="audi"
     id="text8621"
     style="font-size:80px;line-height:1.25;font-family:Arial;-inkscape-font-specification:Arial;fill:#393939;stroke:#393939;stroke-width:3.2"><path
       d="m 31.053125,99.759491 q -3.90625,3.320309 -7.539062,4.687499 -3.59375,1.36719 -7.734375,1.36719 -6.835938,0 -10.507813,-3.32031 Q 1.6,99.134491 1.6,93.939178 q 0,-3.046875 1.3671875,-5.546875 1.40625,-2.539062 3.6328125,-4.0625 2.265625,-1.523437 5.078125,-2.304687 2.070313,-0.546875 6.25,-1.054688 8.515625,-1.015625 12.539063,-2.421875 0.03906,-1.445312 0.03906,-1.835937 0,-4.296875 -1.992187,-6.054688 -2.695313,-2.382812 -8.007813,-2.382812 -4.960937,0 -7.34375,1.757812 -2.34375,1.71875 -3.4765625,6.132813 l -6.875,-0.9375 q 0.9375,-4.414063 3.0859375,-7.109375 2.1484375,-2.734375 6.210938,-4.179688 4.0625,-1.484375 9.414062,-1.484375 5.3125,0 8.632813,1.25 3.320312,1.25 4.882812,3.164063 1.5625,1.875 2.1875,4.765625 0.351563,1.796875 0.351563,6.484375 v 9.375 q 0,9.804687 0.429687,12.421875 0.46875,2.578129 1.796875,4.960939 h -7.34375 q -1.09375,-2.1875 -1.40625,-5.117189 z M 30.467188,84.056366 q -3.828125,1.5625 -11.484375,2.65625 -4.335938,0.625 -6.132813,1.40625 -1.796875,0.78125 -2.773437,2.304687 Q 9.1,91.907928 9.1,93.743866 q 0,2.8125 2.109375,4.6875 2.148438,1.875004 6.25,1.875004 4.0625,0 7.226563,-1.757817 3.164062,-1.796875 4.648437,-4.882812 1.132813,-2.382813 1.132813,-7.03125 z"
       id="path70276" /><path
       d="m 75.6625,104.87668 v -6.093752 q -4.84375,7.031252 -13.164062,7.031252 -3.671875,0 -6.875,-1.40625 -3.164063,-1.40625 -4.726563,-3.51563 -1.523437,-2.148434 -2.148437,-5.234372 -0.429688,-2.070312 -0.429688,-6.5625 V 63.392303 H 55.35 v 23.007813 q 0,5.507812 0.429688,7.421875 0.664062,2.773437 2.8125,4.375 2.148437,1.5625 5.3125,1.5625 3.164062,0 5.9375,-1.601563 2.773437,-1.640625 3.90625,-4.414062 1.171875,-2.8125 1.171875,-8.125 V 63.392303 h 7.03125 v 41.484377 z"
       id="path70278" /><path
       d="m 119.88125,104.87668 v -5.234377 q -3.94531,6.171877 -11.60156,6.171877 -4.96094,0 -9.140627,-2.73438 -4.140625,-2.73437 -6.445313,-7.617184 -2.265625,-4.921875 -2.265625,-11.289063 0,-6.210937 2.070313,-11.25 2.070312,-5.078125 6.210937,-7.773437 4.140625,-2.695313 9.257815,-2.695313 3.75,0 6.67969,1.601563 2.92968,1.5625 4.76562,4.101562 V 47.611053 h 6.99219 V 104.87668 Z M 97.654688,84.173553 q 0,7.96875 3.359372,11.914063 3.35938,3.945314 7.92969,3.945314 4.60938,0 7.8125,-3.750002 3.24219,-3.789062 3.24219,-11.523437 0,-8.515625 -3.28125,-12.5 -3.28125,-3.984375 -8.08594,-3.984375 -4.6875,0 -7.85156,3.828125 -3.125002,3.828125 -3.125002,12.070312 z"
       id="path70280" /><path
       d="m 137.49844,55.696991 v -8.085938 h 7.03125 v 8.085938 z m 0,49.179689 V 63.392303 h 7.03125 v 41.484377 z"
       id="path70282" /></g><circle
     id="_33-2"
     serif:id="3"
     cx="178.95236"
     cy="83.090408"
     r="24.5079"
     style="clip-rule:evenodd;fill:#ff7f0e;fill-opacity:1;fill-rule:evenodd;stroke:#393939;stroke-width:2.45079px;stroke-opacity:1" /><g
     id="Volume-9"
     transform="matrix(1.9526008,0,0,1.9526008,420.54631,-93.93992)"
     style="clip-rule:evenodd;fill-rule:evenodd;stroke:#393939;stroke-opacity:1"><path
       d="m -42.335965,66.321699 c 0.563,0.4 0.694,1.181 0.294,1.743 -0.4,0.563 -1.181,0.694 -1.743,0.294 -1.805,-1.284 -3.961,-1.985 -6.225,-1.985 -2.301,0 -4.49,0.724 -6.311,2.047 -0.559,0.406 -1.341,0.282 -1.746,-0.276 -0.406,-0.559 -0.282,-1.341 0.276,-1.746 2.245,-1.631 4.947,-2.525 7.781,-2.525 2.788,0 5.45,0.865 7.674,2.448 z m 3.997,-5.501 c 0.565,0.396 0.703,1.176 0.307,1.741 -0.396,0.566 -1.175,0.704 -1.741,0.308 -2.967,-2.077 -6.514,-3.21 -10.237,-3.21 -3.761,0 -7.34,1.155 -10.323,3.27 -0.564,0.399 -1.344,0.266 -1.743,-0.297 -0.399,-0.564 -0.266,-1.344 0.297,-1.743 3.403,-2.412 7.487,-3.73 11.769,-3.73 4.24,0 8.286,1.293 11.671,3.661 z"
       style="fill:#393939;stroke:#393939;stroke-opacity:1"
       id="path45-0"
       sodipodi:nodetypes="cccssccsccccscccsc" /><path
       d="m -34.068684,55.400699 c 0.558,0.407 0.679,1.189 0.272,1.746 -0.407,0.558 -1.189,0.679 -1.747,0.272 -4.21,-3.076 -9.28,-4.76 -14.608,-4.76 -5.25,0 -10.251,1.635 -14.426,4.628 -0.561,0.402 -1.342,0.273 -1.744,-0.288 -0.402,-0.561 -0.274,-1.342 0.288,-1.744 4.596,-3.295 10.105,-5.096 15.882,-5.096 5.862,0 11.449,1.855 16.083,5.242 z"
       style="clip-rule:evenodd;fill:#393939;fill-rule:evenodd;stroke:#393939;stroke-opacity:1"
       id="path45-0-5"
       sodipodi:nodetypes="cccscscsc" /><g
       id="Volume"
       style="clip-rule:evenodd;fill-rule:evenodd"
       transform="translate(-151.68304,-198.98656)" /></g><circle
     id="_01-8-2"
     serif:id="0"
     cx="321.34213"
     cy="83.090408"
     r="29.409479"
     style="clip-rule:evenodd;fill:#2ca02c;fill-opacity:1;fill-rule:evenodd;stroke:#000000;stroke-width:12.254px;stroke-opacity:0.35" /><g
     transform="matrix(0.24370925,0.07348277,-0.07348277,0.24370925,324.81358,75.195754)"
     id="g53-3-6"
     style="clip-rule:evenodd;fill-rule:evenodd;stroke:#393939;stroke-opacity:1"><g
       id="g51-1-2"
       style="stroke:#393939;stroke-opacity:1"
       transform="translate(-37.612984,11.340998)"><path
         id="path827-9-1"
         d="M 201.454,112.872 18.385,12.715 l 78.609,195.194 31.298,-50.676 61.884,67.642 23.437,-22.837 -63.268,-66.994 z"
         style="fill:#ffffff;stroke:#393939;stroke-width:16.27px;stroke-linecap:round;stroke-linejoin:round;stroke-opacity:1" /></g></g><g
     aria-label="_"
     id="text8621-0"
     style="font-size:80px;line-height:1.25;font-family:Arial;-inkscape-font-specification:Arial;baseline-shift:baseline;fill:#393939;stroke:#393939;stroke-width:3.2;stop-color:#000000"><path
       d="m 207.49838,110.7751 v -5.07812 h 46.60157 v 5.07812 z"
       style="baseline-shift:baseline;stop-color:#000000;stop-opacity:1"
       id="path70285" /></g><g
     aria-label="t"
     id="text8621-0-3"
     style="font-size:80px;line-height:1.25;font-family:Arial;-inkscape-font-specification:Arial;baseline-shift:baseline;fill:#393939;stroke:#393939;stroke-width:3.2;stop-color:#000000"><path
       d="m 277.33432,98.587601 1.01563,6.210939 q -2.96875,0.625 -5.3125,0.625 -3.82813,0 -5.9375,-1.21094 -2.10938,-1.21094 -2.96875,-3.16406 -0.85938,-1.992189 -0.85938,-8.320314 V 68.861038 h -5.15625 v -5.46875 h 5.15625 V 53.118851 l 6.99219,-4.21875 v 14.492187 h 7.07031 v 5.46875 h -7.07031 v 24.257813 q 0,3.007812 0.35156,3.867187 0.39063,0.859375 1.21094,1.367188 0.85937,0.507812 2.42187,0.507812 1.17188,0 3.08594,-0.273437 z"
       style="baseline-shift:baseline;stop-color:#000000;stop-opacity:1"
       id="path70288" /></g><g
     aria-label="kens"
     id="text8621-1"
     style="font-size:80px;line-height:1.25;font-family:Arial;-inkscape-font-specification:Arial;baseline-shift:baseline;fill:#393939;stroke:#393939;stroke-width:3.2;stop-color:#000000"><path
       d="M 368.02182,104.87666 V 47.611038 h 7.03125 v 32.65625 l 16.64063,-16.875 h 9.10156 l -15.85938,15.390625 17.46094,26.093747 h -8.67187 l -13.71094,-21.210934 -4.96094,4.765625 v 16.445309 z"
       style="baseline-shift:baseline;stop-color:#000000;stop-opacity:1"
       id="path70291" /><path
       d="m 436.3812,91.517288 7.26562,0.898438 q -1.71875,6.367187 -6.36719,9.882814 -4.64843,3.51562 -11.875,3.51562 -9.10156,0 -14.45312,-5.58593 -5.3125,-5.625004 -5.3125,-15.742192 0,-10.46875 5.39062,-16.25 5.39063,-5.78125 13.98438,-5.78125 8.32031,0 13.59375,5.664063 5.27344,5.664062 5.27344,15.9375 0,0.625 -0.0391,1.875 h -30.9375 q 0.39063,6.835937 3.86719,10.46875 3.47656,3.632809 8.67188,3.632809 3.86718,0 6.60156,-2.031247 2.73437,-2.03125 4.33594,-6.484375 z M 413.29526,80.150101 h 23.16406 q -0.46875,-5.234375 -2.65625,-7.851563 -3.35937,-4.0625 -8.71094,-4.0625 -4.84375,0 -8.16406,3.242188 -3.28125,3.242187 -3.63281,8.671875 z"
       style="baseline-shift:baseline;stop-color:#000000;stop-opacity:1"
       id="path70293" /><path
       d="M 452.47495,104.87666 V 63.392288 h 6.32812 v 5.898438 q 4.57031,-6.835938 13.20313,-6.835938 3.75,0 6.875,1.367188 3.16406,1.328125 4.72656,3.515625 1.5625,2.1875 2.1875,5.195312 0.39062,1.953125 0.39062,6.835938 v 25.507809 h -7.03125 V 79.642288 q 0,-4.296875 -0.82031,-6.40625 -0.82031,-2.148437 -2.92969,-3.398437 -2.07031,-1.289063 -4.88281,-1.289063 -4.49219,0 -7.77344,2.851563 -3.24218,2.851562 -3.24218,10.820312 v 22.656247 z"
       style="baseline-shift:baseline;stop-color:#000000;stop-opacity:1"
       id="path70295" /><path
       d="m 494.15463,92.493851 6.95313,-1.09375 q 0.58594,4.179687 3.24219,6.40625 2.69531,2.226559 7.5,2.226559 4.84375,0 7.1875,-1.953122 2.34375,-1.992187 2.34375,-4.648437 0,-2.382813 -2.07032,-3.75 -1.44531,-0.9375 -7.1875,-2.382813 -7.73437,-1.953125 -10.74218,-3.359375 -2.96875,-1.445312 -4.53125,-3.945312 -1.52344,-2.539063 -1.52344,-5.585938 0,-2.773437 1.25,-5.117187 1.28906,-2.382813 3.47656,-3.945313 1.64063,-1.210937 4.45313,-2.03125 2.85156,-0.859375 6.09375,-0.859375 4.88281,0 8.55468,1.40625 3.71094,1.40625 5.46875,3.828125 1.75782,2.382813 2.42188,6.40625 l -6.875,0.9375 q -0.46875,-3.203125 -2.73438,-5 -2.22656,-1.796875 -6.32812,-1.796875 -4.84375,0 -6.91406,1.601563 -2.07032,1.601562 -2.07032,3.75 0,1.367187 0.85938,2.460937 0.85937,1.132813 2.69531,1.875 1.05469,0.390625 6.21094,1.796875 7.46094,1.992188 10.39062,3.28125 2.96875,1.25 4.64844,3.671875 1.67969,2.421875 1.67969,6.015625 0,3.515625 -2.07031,6.640625 -2.03125,3.085942 -5.89844,4.804692 -3.86719,1.67968 -8.75,1.67968 -8.08594,0 -12.34375,-3.35937 -4.21875,-3.359377 -5.39063,-9.960939 z"
       style="baseline-shift:baseline;stop-color:#000000;stop-opacity:1"
       id="path70297" /></g></g></svg>
